# xmcd CD database file
#
# Track frame offsets:
#	150
#	31888
#	47358
#	63320
#	88647
#	112064
#	130510
#	161989
#	181154
#	206052
#	223672
#	252482
#	266307
#	286811
#
# Disc length: 4079 seconds
#
# Revision: 0
# Processed by: cddbd v1.5.1PL0 Copyright (c) Steve Scherf et al.
# Submitted via: CDex 1.51
#
DISCID=c60fed0e
DTITLE=Hobo Blues Band - Kenyerem java
DYEAR=1900
DGENRE=Blues
TTITLE0=Dobókocka
TTITLE1=Szátrfaló
TTITLE2=Az idegen földön
TTITLE3=Másik magyarország
TTITLE4=Az idõ
TTITLE5=Ballada a senki fiáról
TTITLE6=Betegség Blues
TTITLE7=Meghívás bluesra
TTITLE8=Feketebárány blues
TTITLE9=A Fattyú
TTITLE10=Matilda
TTITLE11=Gazember
TTITLE12=Halj meg és nagy leszel
TTITLE13=Fogadj el engem
EXTD=
EXTT0=
EXTT1=
EXTT2=
EXTT3=
EXTT4=
EXTT5=
EXTT6=
EXTT7=
EXTT8=
EXTT9=
EXTT10=
EXTT11=
EXTT12=
EXTT13=
PLAYORDER=
